<svg version="1.1" id="Layer_1" xmlns="http://www.w3.org/2000/svg" xmlns:xlink="http://www.w3.org/1999/xlink" x="0px" y="0px"
	 width="100%" viewBox="0 0 827 306" enable-background="new 0 0 827 306" xml:space="preserve">
<path fill="#000101" opacity="1.000000" stroke="none" 
	d="
M512.000000,307.000000 
	C341.370880,307.000000 171.241745,307.000000 1.056307,307.000000 
	C1.056307,205.060059 1.056307,103.120094 1.056307,1.090059 
	C276.545776,1.090059 552.091614,1.090059 827.818726,1.090059 
	C827.818726,102.999748 827.818726,204.999847 827.818726,307.000000 
	C722.786804,307.000000 617.643372,307.000000 512.000000,307.000000 
M544.538147,132.994980 
	C544.722839,132.992767 544.907593,132.990570 545.318420,133.903763 
	C545.318420,148.152023 545.318420,162.400284 545.318420,177.592392 
	C550.292175,177.024994 554.721985,176.519653 559.652283,175.988068 
	C559.915894,175.824707 560.179443,175.661331 560.443054,175.497986 
	C560.013367,175.327179 559.583679,175.156372 558.983032,174.063950 
	C559.035583,147.713791 559.088135,121.363640 559.871704,94.832573 
	C561.477966,92.502228 562.388977,90.322449 557.765503,89.228271 
	C553.552979,89.491432 549.340454,89.754601 544.545227,90.010406 
	C544.351318,90.021141 544.157349,90.031883 543.375793,90.622528 
	C543.271667,104.189163 543.156555,117.755753 543.102844,131.322586 
	C543.100769,131.874939 543.677124,132.429581 544.538147,132.994980 
M146.234634,115.338539 
	C156.664459,98.309319 167.076736,81.269318 177.529633,64.254280 
	C185.893219,50.640148 194.322891,37.066628 202.687988,23.453423 
	C205.509583,18.861609 204.118256,16.200861 198.822922,15.897470 
	C197.826660,15.840391 196.825226,15.864992 195.826202,15.866299 
	C160.194778,15.912881 124.563187,16.027630 88.932083,15.940975 
	C83.281029,15.927232 79.574989,18.187033 76.682732,22.878229 
	C55.981892,56.454674 35.226650,89.997902 14.359011,123.470825 
	C11.462180,128.117523 11.303621,132.303818 14.050391,136.980194 
	C19.106552,145.588287 23.956297,154.317795 28.879137,163.004028 
	C44.545189,190.646378 60.205296,218.292068 75.872368,246.540176 
	C84.722588,261.978699 93.378922,277.532898 102.495560,292.812439 
	C107.991684,302.023987 113.993340,302.056213 119.892143,293.035461 
	C132.989868,273.005859 145.946365,252.881088 158.722900,232.645126 
	C170.799957,213.517044 182.557846,194.187607 194.485291,174.964844 
	C204.045364,159.557434 213.878265,144.313278 223.137695,128.727905 
	C227.833786,120.823524 224.603043,115.881935 215.533737,115.892593 
	C192.372879,115.919807 169.212036,115.965569 146.234634,115.338539 
M336.699127,137.500092 
	C336.699127,121.560204 336.699127,105.620308 336.699127,89.661377 
	C331.984192,89.661377 327.579834,89.661377 322.688599,89.661377 
	C322.688599,101.138710 322.688599,112.317169 322.688599,123.961388 
	C305.872040,107.326050 281.487061,113.553795 275.836121,135.832199 
	C274.185455,142.339813 274.277893,149.854050 275.682220,156.458008 
	C278.897827,171.579361 291.024384,180.116333 305.717438,177.787720 
	C311.784027,176.826248 317.449463,173.333954 323.313477,170.986282 
	C323.313477,172.272812 323.313477,174.491531 323.313477,176.738312 
	C327.900787,176.738312 332.114197,176.738312 336.698761,176.738312 
	C336.698761,163.763611 336.698761,151.131851 336.699127,137.500092 
M687.614990,175.291046 
	C700.107727,168.016479 705.860352,154.727966 702.918335,138.850021 
	C700.947144,128.211960 695.405334,119.784607 684.783142,116.279198 
	C674.539795,112.898849 664.725830,114.073723 656.543823,122.062126 
	C656.038757,122.555199 655.226562,122.733665 654.170166,123.246346 
	C654.058167,120.885818 653.969666,119.020035 653.885681,117.249939 
	C649.344727,117.249939 645.261841,117.249939 641.262573,117.249939 
	C641.262573,145.898605 641.262573,174.266510 641.262573,202.634613 
	C645.997192,202.634613 650.394287,202.634613 655.119873,202.634613 
	C655.119873,191.768326 655.119873,181.215240 655.119873,170.095474 
	C664.926941,178.811890 675.468140,180.250031 687.614990,175.291046 
M361.788452,173.814636 
	C378.262360,183.961197 402.935730,176.073395 406.390411,159.054764 
	C404.703827,159.054764 403.038849,159.095703 401.376526,159.046951 
	C396.759735,158.911530 392.717590,158.996033 389.097656,163.274490 
	C385.152344,167.937500 376.739502,168.035263 370.927704,164.932312 
	C365.678192,162.129578 362.816315,156.954468 363.376190,150.787567 
	C378.560699,150.787567 393.787262,150.787567 408.971649,150.787567 
	C410.084381,135.414093 403.823883,123.107643 392.224182,117.386459 
	C381.448029,112.071457 367.183197,114.002419 358.587402,121.939705 
	C343.788757,135.604691 345.068512,160.694763 361.788452,173.814636 
M753.499573,151.023270 
	C759.928772,151.023270 766.357910,151.023270 772.718201,151.023270 
	C774.072266,131.150055 763.217041,116.512527 746.350281,114.714844 
	C729.061890,112.872231 714.657104,123.643280 712.139771,140.295486 
	C709.325500,158.912003 719.544006,175.049377 735.923340,177.855316 
	C751.796997,180.574615 767.481506,172.095520 770.297302,159.054840 
	C769.090515,159.054840 767.936279,159.041397 766.782532,159.057144 
	C761.463562,159.129776 756.641541,158.674286 752.078430,163.613831 
	C747.527893,168.539825 740.430359,168.009995 734.342407,164.917236 
	C728.887146,162.145874 726.599670,157.247345 726.108765,151.313019 
	C726.862122,151.164169 727.185425,151.045013 727.509033,151.044449 
	C735.839294,151.029938 744.169495,151.027786 753.499573,151.023270 
M513.434753,164.115341 
	C501.230255,170.866577 488.738098,164.532150 488.145538,151.033066 
	C495.804291,151.033066 503.454712,151.033066 511.105103,151.033066 
	C518.712219,151.033066 526.319336,151.033066 533.856812,151.033066 
	C536.016296,128.127487 521.359619,115.852119 507.394531,114.619843 
	C490.005096,113.085388 475.895264,124.287407 473.765594,141.492752 
	C471.507843,159.732605 481.743988,175.154785 497.909180,177.868469 
	C513.415100,180.471466 529.066040,171.813065 531.613586,158.985092 
	C525.508118,159.850494 518.430237,156.418610 513.434753,164.115341 
M585.616394,175.024445 
	C590.442322,176.066742 595.243591,177.845978 600.098999,178.008850 
	C613.050842,178.443329 623.815613,171.096588 628.717163,159.335251 
	C633.778198,147.191223 631.342285,132.272293 622.442566,123.516907 
	C612.779541,114.010628 601.121216,112.259155 588.727722,116.681297 
	C576.200684,121.151054 570.348511,131.034393 569.519409,143.880600 
	C568.671936,157.011292 573.352783,167.651489 585.616394,175.024445 
M435.383209,145.995026 
	C431.895020,136.154114 428.406860,126.313210 424.921509,116.480324 
	C419.959869,116.480324 415.361389,116.480324 410.340271,116.480324 
	C410.739197,117.682411 410.995697,118.598633 411.342560,119.479263 
	C417.728149,135.690613 424.109985,151.903458 430.524445,168.103409 
	C434.095764,177.122986 434.127502,176.916061 443.588226,177.182159 
	C447.199646,177.283722 448.776428,176.124969 450.013062,172.772507 
	C455.814301,157.045303 461.917786,141.429688 467.888977,125.764946 
	C469.033447,122.762619 470.068451,119.718552 471.297607,116.293388 
	C467.206604,116.293388 463.864075,116.514687 460.565887,116.227226 
	C457.636383,115.971893 456.526886,117.247574 455.669952,119.828659 
	C453.212769,127.229683 450.502594,134.547165 447.860382,141.886169 
	C445.642273,148.047241 443.379944,154.192429 440.795959,161.280640 
	C438.859558,155.693314 437.299896,151.193039 435.383209,145.995026 
M794.192139,123.664711 
	C794.076416,121.556236 793.960754,119.447769 793.837708,117.205490 
	C789.889709,117.205490 786.149597,117.205490 782.379517,117.205490 
	C782.379517,137.267960 782.379517,157.094376 782.379517,176.842926 
	C786.840881,176.842926 790.948059,176.842926 795.455078,176.842926 
	C795.455078,174.818176 795.432007,173.015244 795.458862,171.213074 
	C795.605042,161.414307 795.513245,151.603317 795.997864,141.821045 
	C796.378845,134.129150 802.027954,128.728210 809.768188,127.902588 
	C811.697205,127.696823 813.666809,127.871841 815.735107,127.871841 
	C815.735107,123.380547 815.735107,119.354317 815.735107,115.336548 
	C810.005554,114.322685 805.167664,115.567345 800.889465,118.890976 
	C798.835815,120.486473 796.925781,122.266937 794.192139,123.664711 
z"/>
<path fill="#2FCC69" opacity="1.000000" stroke="none" 
	d="
M75.867691,245.936478 
	C60.205296,218.292068 44.545189,190.646378 28.879137,163.004028 
	C23.956297,154.317795 19.106552,145.588287 14.050391,136.980194 
	C11.303621,132.303818 11.462180,128.117523 14.359011,123.470825 
	C35.226650,89.997902 55.981892,56.454674 76.682732,22.878229 
	C79.574989,18.187033 83.281029,15.927232 88.932083,15.940975 
	C124.563187,16.027630 160.194778,15.912881 195.826202,15.866299 
	C196.825226,15.864992 197.826660,15.840391 198.822922,15.897470 
	C204.118256,16.200861 205.509583,18.861609 202.687988,23.453423 
	C194.322891,37.066628 185.893219,50.640148 177.529633,64.254280 
	C167.076736,81.269318 156.664459,98.309319 145.849472,115.842148 
	C126.717239,146.727661 107.953705,177.099442 89.231346,207.496582 
	C81.951706,219.315628 75.453041,231.430923 75.867691,245.936478 
z"/>
<path fill="#09733E" opacity="1.000000" stroke="none" 
	d="
M75.870026,246.238327 
	C75.453041,231.430923 81.951706,219.315628 89.231346,207.496582 
	C107.953705,177.099442 126.717239,146.727661 145.757751,116.174835 
	C169.212036,115.965569 192.372879,115.919807 215.533737,115.892593 
	C224.603043,115.881935 227.833786,120.823524 223.137695,128.727905 
	C213.878265,144.313278 204.045364,159.557434 194.485291,174.964844 
	C182.557846,194.187607 170.799957,213.517044 158.722900,232.645126 
	C145.946365,252.881088 132.989868,273.005859 119.892143,293.035461 
	C113.993340,302.056213 107.991684,302.023987 102.495560,292.812439 
	C93.378922,277.532898 84.722588,261.978699 75.870026,246.238327 
z"/>
<path fill="#F7F7F7" opacity="1.000000" stroke="none" 
	d="
M336.698944,138.000092 
	C336.698761,151.131851 336.698761,163.763611 336.698761,176.738312 
	C332.114197,176.738312 327.900787,176.738312 323.313477,176.738312 
	C323.313477,174.491531 323.313477,172.272812 323.313477,170.986282 
	C317.449463,173.333954 311.784027,176.826248 305.717438,177.787720 
	C291.024384,180.116333 278.897827,171.579361 275.682220,156.458008 
	C274.277893,149.854050 274.185455,142.339813 275.836121,135.832199 
	C281.487061,113.553795 305.872040,107.326050 322.688599,123.961388 
	C322.688599,112.317169 322.688599,101.138710 322.688599,89.661377 
	C327.579834,89.661377 331.984192,89.661377 336.699127,89.661377 
	C336.699127,105.620308 336.699127,121.560204 336.698944,138.000092 
M321.979340,137.927689 
	C318.511261,129.915665 311.819183,125.970184 303.420990,126.986145 
	C295.809235,127.906967 290.148071,133.499146 288.991058,141.866745 
	C288.523468,145.248444 288.576721,148.841217 289.165039,152.202835 
	C290.699524,160.971252 297.155762,166.072037 305.959595,165.995743 
	C314.992004,165.917465 321.271210,160.983658 322.519958,152.053253 
	C323.126617,147.714661 322.317139,143.178040 321.979340,137.927689 
z"/>
<path fill="#FAFAFA" opacity="1.000000" stroke="none" 
	d="
M687.290039,175.493820 
	C675.468140,180.250031 664.926941,178.811890 655.119873,170.095474 
	C655.119873,181.215240 655.119873,191.768326 655.119873,202.634613 
	C650.394287,202.634613 645.997192,202.634613 641.262573,202.634613 
	C641.262573,174.266510 641.262573,145.898605 641.262573,117.249939 
	C645.261841,117.249939 649.344727,117.249939 653.885681,117.249939 
	C653.969666,119.020035 654.058167,120.885818 654.170166,123.246346 
	C655.226562,122.733665 656.038757,122.555199 656.543823,122.062126 
	C664.725830,114.073723 674.539795,112.898849 684.783142,116.279198 
	C695.405334,119.784607 700.947144,128.211960 702.918335,138.850021 
	C705.860352,154.727966 700.107727,168.016479 687.290039,175.493820 
M663.642395,164.119125 
	C673.179199,167.973190 681.640564,166.093414 686.178345,158.702682 
	C690.791199,151.189560 691.046082,143.146957 687.054321,135.373093 
	C681.874939,125.286530 666.190430,123.861275 658.943604,132.545609 
	C651.999817,140.866791 654.116150,157.437363 663.642395,164.119125 
z"/>
<path fill="#F8F7F7" opacity="1.000000" stroke="none" 
	d="
M361.499451,173.590546 
	C345.068512,160.694763 343.788757,135.604691 358.587402,121.939705 
	C367.183197,114.002419 381.448029,112.071457 392.224182,117.386459 
	C403.823883,123.107643 410.084381,135.414093 408.971649,150.787567 
	C393.787262,150.787567 378.560699,150.787567 363.376190,150.787567 
	C362.816315,156.954468 365.678192,162.129578 370.927704,164.932312 
	C376.739502,168.035263 385.152344,167.937500 389.097656,163.274490 
	C392.717590,158.996033 396.759735,158.911530 401.376526,159.046951 
	C403.038849,159.095703 404.703827,159.054764 406.390411,159.054764 
	C402.935730,176.073395 378.262360,183.961197 361.499451,173.590546 
M365.703094,132.376328 
	C364.665558,134.831558 363.628021,137.286789 362.471161,140.024460 
	C373.693726,140.024460 383.985229,140.024460 394.566742,140.024460 
	C393.346222,133.436508 390.419312,128.810486 384.131348,126.947136 
	C377.177521,124.886467 371.035431,126.068008 365.703094,132.376328 
z"/>
<path fill="#F8F8F8" opacity="1.000000" stroke="none" 
	d="
M752.999634,151.023376 
	C744.169495,151.027786 735.839294,151.029938 727.509033,151.044449 
	C727.185425,151.045013 726.862122,151.164169 726.108765,151.313019 
	C726.599670,157.247345 728.887146,162.145874 734.342407,164.917236 
	C740.430359,168.009995 747.527893,168.539825 752.078430,163.613831 
	C756.641541,158.674286 761.463562,159.129776 766.782532,159.057144 
	C767.936279,159.041397 769.090515,159.054840 770.297302,159.054840 
	C767.481506,172.095520 751.796997,180.574615 735.923340,177.855316 
	C719.544006,175.049377 709.325500,158.912003 712.139771,140.295486 
	C714.657104,123.643280 729.061890,112.872231 746.350281,114.714844 
	C763.217041,116.512527 774.072266,131.150055 772.718201,151.023270 
	C766.357910,151.023270 759.928772,151.023270 752.999634,151.023376 
M740.505432,140.415421 
	C746.267029,140.415421 752.028564,140.415421 757.802429,140.415421 
	C757.364746,131.746094 751.082336,126.023422 742.377136,125.955284 
	C733.597656,125.886566 727.462219,131.396698 726.612976,140.414276 
	C730.928040,140.414276 735.219238,140.414276 740.505432,140.415421 
z"/>
<path fill="#F8F8F7" opacity="1.000000" stroke="none" 
	d="
M513.756226,163.907379 
	C518.430237,156.418610 525.508118,159.850494 531.613586,158.985092 
	C529.066040,171.813065 513.415100,180.471466 497.909180,177.868469 
	C481.743988,175.154785 471.507843,159.732605 473.765594,141.492752 
	C475.895264,124.287407 490.005096,113.085388 507.394531,114.619843 
	C521.359619,115.852119 536.016296,128.127487 533.856812,151.033066 
	C526.319336,151.033066 518.712219,151.033066 511.105103,151.033066 
	C503.454712,151.033066 495.804291,151.033066 488.145538,151.033066 
	C488.738098,164.532150 501.230255,170.866577 513.756226,163.907379 
M504.403107,126.087372 
	C494.444824,126.636673 488.969910,131.414459 488.388580,140.232605 
	C498.670837,140.232605 508.941315,140.232605 519.225220,140.232605 
	C518.566956,131.812546 514.672913,127.929886 504.403107,126.087372 
z"/>
<path fill="#F9F9F9" opacity="1.000000" stroke="none" 
	d="
M585.281494,174.857239 
	C573.352783,167.651489 568.671936,157.011292 569.519409,143.880600 
	C570.348511,131.034393 576.200684,121.151054 588.727722,116.681297 
	C601.121216,112.259155 612.779541,114.010628 622.442566,123.516907 
	C631.342285,132.272293 633.778198,147.191223 628.717163,159.335251 
	C623.815613,171.096588 613.050842,178.443329 600.098999,178.008850 
	C595.243591,177.845978 590.442322,176.066742 585.281494,174.857239 
M585.339722,156.886597 
	C588.697144,163.507751 594.140564,166.776917 601.501160,166.358490 
	C608.507935,165.960190 613.927612,162.217346 615.613220,155.602997 
	C616.991760,150.193481 617.192444,144.053375 616.163208,138.565826 
	C614.766602,131.120071 607.872742,126.718140 600.276794,126.679344 
	C593.031433,126.642342 586.771667,131.065384 584.390259,138.129395 
	C582.347595,144.188599 582.577332,150.237579 585.339722,156.886597 
z"/>
<path fill="#F7F7F7" opacity="1.000000" stroke="none" 
	d="
M435.561707,146.343903 
	C437.299896,151.193039 438.859558,155.693314 440.795959,161.280640 
	C443.379944,154.192429 445.642273,148.047241 447.860382,141.886169 
	C450.502594,134.547165 453.212769,127.229683 455.669952,119.828659 
	C456.526886,117.247574 457.636383,115.971893 460.565887,116.227226 
	C463.864075,116.514687 467.206604,116.293388 471.297607,116.293388 
	C470.068451,119.718552 469.033447,122.762619 467.888977,125.764946 
	C461.917786,141.429688 455.814301,157.045303 450.013062,172.772507 
	C448.776428,176.124969 447.199646,177.283722 443.588226,177.182159 
	C434.127502,176.916061 434.095764,177.122986 430.524445,168.103409 
	C424.109985,151.903458 417.728149,135.690613 411.342560,119.479263 
	C410.995697,118.598633 410.739197,117.682411 410.340271,116.480324 
	C415.361389,116.480324 419.959869,116.480324 424.921509,116.480324 
	C428.406860,126.313210 431.895020,136.154114 435.561707,146.343903 
z"/>
<path fill="#F2F2F2" opacity="1.000000" stroke="none" 
	d="
M559.151794,176.014313 
	C554.721985,176.519653 550.292175,177.024994 545.318420,177.592392 
	C545.318420,162.400284 545.318420,148.152023 545.347046,132.996658 
	C545.293091,118.065620 545.210510,104.041695 545.127930,90.017761 
	C549.340454,89.754601 553.552979,89.491432 558.287598,89.603020 
	C558.920044,91.656342 559.030396,93.334915 559.140747,95.013489 
	C559.088135,121.363640 559.035583,147.713791 558.989258,174.781769 
	C559.047546,175.671173 559.099670,175.842743 559.151794,176.014313 
z"/>
<path fill="#FAFAFA" opacity="1.000000" stroke="none" 
	d="
M794.571411,123.814163 
	C796.925781,122.266937 798.835815,120.486473 800.889465,118.890976 
	C805.167664,115.567345 810.005554,114.322685 815.735107,115.336548 
	C815.735107,119.354317 815.735107,123.380547 815.735107,127.871841 
	C813.666809,127.871841 811.697205,127.696823 809.768188,127.902588 
	C802.027954,128.728210 796.378845,134.129150 795.997864,141.821045 
	C795.513245,151.603317 795.605042,161.414307 795.458862,171.213074 
	C795.432007,173.015244 795.455078,174.818176 795.455078,176.842926 
	C790.948059,176.842926 786.840881,176.842926 782.379517,176.842926 
	C782.379517,157.094376 782.379517,137.267960 782.379517,117.205490 
	C786.149597,117.205490 789.889709,117.205490 793.837708,117.205490 
	C793.960754,119.447769 794.076416,121.556236 794.571411,123.814163 
z"/>
<path fill="#131214" opacity="1.000000" stroke="none" 
	d="
M544.836548,90.014084 
	C545.210510,104.041695 545.293091,118.065620 545.234070,132.538956 
	C544.907593,132.990570 544.722839,132.992767 544.262329,132.522247 
	C543.978821,118.047203 543.971130,104.044914 543.963440,90.042618 
	C544.157349,90.031883 544.351318,90.021141 544.836548,90.014084 
z"/>
<path fill="#282628" opacity="1.000000" stroke="none" 
	d="
M543.669617,90.332573 
	C543.971130,104.044914 543.978821,118.047203 543.985229,132.516327 
	C543.677124,132.429581 543.100769,131.874939 543.102844,131.322586 
	C543.156555,117.755753 543.271667,104.189163 543.669617,90.332573 
z"/>
<path fill="#131214" opacity="1.000000" stroke="none" 
	d="
M559.506226,94.923035 
	C559.030396,93.334915 558.920044,91.656342 558.725586,89.564560 
	C562.388977,90.322449 561.477966,92.502228 559.506226,94.923035 
z"/>
<path fill="#131214" opacity="1.000000" stroke="none" 
	d="
M559.402039,176.001190 
	C559.099670,175.842743 559.047546,175.671173 559.074707,175.242584 
	C559.583679,175.156372 560.013367,175.327179 560.443054,175.497986 
	C560.179443,175.661331 559.915894,175.824707 559.402039,176.001190 
z"/>
<path fill="#040404" opacity="1.000000" stroke="none" 
	d="
M322.064026,138.329376 
	C322.317139,143.178040 323.126617,147.714661 322.519958,152.053253 
	C321.271210,160.983658 314.992004,165.917465 305.959595,165.995743 
	C297.155762,166.072037 290.699524,160.971252 289.165039,152.202835 
	C288.576721,148.841217 288.523468,145.248444 288.991058,141.866745 
	C290.148071,133.499146 295.809235,127.906967 303.420990,126.986145 
	C311.819183,125.970184 318.511261,129.915665 322.064026,138.329376 
z"/>
<path fill="#040404" opacity="1.000000" stroke="none" 
	d="
M663.290039,163.968781 
	C654.116150,157.437363 651.999817,140.866791 658.943604,132.545609 
	C666.190430,123.861275 681.874939,125.286530 687.054321,135.373093 
	C691.046082,143.146957 690.791199,151.189560 686.178345,158.702682 
	C681.640564,166.093414 673.179199,167.973190 663.290039,163.968781 
z"/>
<path fill="#050505" opacity="1.000000" stroke="none" 
	d="
M365.910461,132.061371 
	C371.035431,126.068008 377.177521,124.886467 384.131348,126.947136 
	C390.419312,128.810486 393.346222,133.436508 394.566742,140.024460 
	C383.985229,140.024460 373.693726,140.024460 362.471161,140.024460 
	C363.628021,137.286789 364.665558,134.831558 365.910461,132.061371 
z"/>
<path fill="#060606" opacity="1.000000" stroke="none" 
	d="
M740.007935,140.414856 
	C735.219238,140.414276 730.928040,140.414276 726.612976,140.414276 
	C727.462219,131.396698 733.597656,125.886566 742.377136,125.955284 
	C751.082336,126.023422 757.364746,131.746094 757.802429,140.415421 
	C752.028564,140.415421 746.267029,140.415421 740.007935,140.414856 
z"/>
<path fill="#060606" opacity="1.000000" stroke="none" 
	d="
M504.820251,126.108215 
	C514.672913,127.929886 518.566956,131.812546 519.225220,140.232605 
	C508.941315,140.232605 498.670837,140.232605 488.388580,140.232605 
	C488.969910,131.414459 494.444824,126.636673 504.820251,126.108215 
z"/>
<path fill="#040404" opacity="1.000000" stroke="none" 
	d="
M585.187683,156.528992 
	C582.577332,150.237579 582.347595,144.188599 584.390259,138.129395 
	C586.771667,131.065384 593.031433,126.642342 600.276794,126.679344 
	C607.872742,126.718140 614.766602,131.120071 616.163208,138.565826 
	C617.192444,144.053375 616.991760,150.193481 615.613220,155.602997 
	C613.927612,162.217346 608.507935,165.960190 601.501160,166.358490 
	C594.140564,166.776917 588.697144,163.507751 585.187683,156.528992 
z"/>
</svg>